<svg width="152" height="52" viewBox="0 0 152 52" fill="none" xmlns="http://www.w3.org/2000/svg">
<g id="Group 1000004144">
<g id="Group">
<path id="Vector" d="M63.9559 29.863H0.0209961V51.162H63.9559V29.863Z" fill="#84B740"/>
<path id="Vector_2" d="M63.9559 0.799988H0.0209961V22.118H63.9559V0.799988Z" fill="#259BD6"/>
<path id="Vector_3" d="M127.891 46.8339L127.606 46.8908C126.619 47.0807 126.258 47.1566 125.537 47.1566C123.866 47.1566 121.892 46.3024 121.892 42.278C121.892 40.2088 122.234 37.4563 125.347 37.4563H125.366C125.897 37.4942 126.505 37.5512 127.644 37.8929L127.891 37.9688V46.8339ZM128.403 26.7688L127.891 26.8637V34.3051L127.435 34.1722L127.302 34.1342C126.79 33.9824 125.613 33.6407 124.474 33.6407C118.247 33.6407 116.938 38.3485 116.938 42.297C116.938 47.7071 119.975 50.8203 125.271 50.8203C127.511 50.8203 129.163 50.5925 130.833 50.042C132.371 49.5485 132.921 48.8461 132.921 47.3464V25.9905C131.441 26.2563 129.903 26.522 128.403 26.7688Z" fill="#27292D"/>
<path id="Vector_4" d="M146.399 46.9668L146.133 47.0427L145.184 47.2895C144.292 47.5173 143.495 47.6502 142.887 47.6502C141.426 47.6502 140.552 46.9288 140.552 45.6949C140.552 44.8976 140.913 43.5498 143.305 43.5498H146.399V46.9668ZM144.216 33.5457C142.299 33.5457 140.325 33.8874 137.876 34.6468L136.281 35.1213L136.813 38.7281L138.369 38.2156C140.002 37.6841 142.033 37.3424 143.552 37.3424C144.235 37.3424 146.323 37.3424 146.323 39.6013V40.5885H143.419C138.123 40.5885 135.674 42.278 135.674 45.9037C135.674 48.998 137.933 50.8583 141.729 50.8583C142.906 50.8583 144.539 50.6305 145.944 50.2888L146.02 50.2698L146.096 50.2888L146.57 50.3647C148.051 50.6305 149.588 50.8963 151.088 51.181V39.3356C151.088 35.501 148.772 33.5457 144.216 33.5457Z" fill="#27292D"/>
<path id="Vector_5" d="M109.515 46.9668L109.249 47.0427L108.3 47.2895C107.408 47.5173 106.63 47.6502 106.003 47.6502C104.542 47.6502 103.668 46.9288 103.668 45.6949C103.668 44.8976 104.029 43.5498 106.402 43.5498H109.496L109.515 46.9668ZM107.351 33.5457C105.415 33.5457 103.46 33.8874 101.011 34.6468L99.4162 35.1213L99.9478 38.7281L101.504 38.2156C103.137 37.6841 105.168 37.3424 106.687 37.3424C107.37 37.3424 109.458 37.3424 109.458 39.6013V40.5885H106.554C101.258 40.5885 98.7898 42.278 98.7898 45.9037C98.7898 48.998 101.049 50.8583 104.864 50.8583C106.041 50.8583 107.674 50.6305 109.079 50.2888L109.155 50.2698L109.23 50.2888L109.686 50.3647C111.186 50.6305 112.704 50.8963 114.204 51.2V39.3546C114.223 35.482 111.907 33.5457 107.351 33.5457Z" fill="#27292D"/>
<path id="Vector_6" d="M89.5261 33.5837C87.1152 33.5837 85.122 34.381 84.3817 34.7227L84.1918 34.8176L84.021 34.6847C82.9959 33.9444 81.4962 33.5647 79.4081 33.5647C77.5668 33.5647 75.8393 33.8305 73.96 34.381C72.3464 34.8746 71.72 35.6529 71.72 37.1146V50.6495H76.7695V38.1396L77.0162 38.0637C78.0413 37.722 78.6488 37.6651 79.2373 37.6651C80.6989 37.6651 81.4393 38.4434 81.4393 39.962V50.6685H86.4129V39.7532C86.4129 39.1078 86.28 38.7281 86.261 38.6522L86.0901 38.3295L86.4318 38.1776C87.1912 37.8359 88.0264 37.6651 88.8996 37.6651C89.9057 37.6651 91.1017 38.0637 91.1017 39.962V50.6685H96.0562V39.4685C96.0562 35.501 93.9301 33.5837 89.5261 33.5837Z" fill="#27292D"/>
<path id="Vector_7" d="M142.679 14.6956C141.938 14.6956 140.704 14.6196 139.736 14.4298L139.451 14.3729V7.06439C139.451 6.45694 139.338 6.07728 139.319 6.02033L139.167 5.7166L139.489 5.58372C139.565 5.54575 139.641 5.52677 139.736 5.4888L139.793 5.45084C139.907 5.41287 140.021 5.3749 140.135 5.33694C140.192 5.31795 140.23 5.29897 140.268 5.29897C141.388 4.99524 142.413 5.03321 142.868 4.99524H142.887C145.982 4.99524 146.342 7.74778 146.342 9.81694C146.323 13.8413 144.33 14.6956 142.679 14.6956ZM142.66 0.799988C142.622 0.799988 142.565 0.799988 142.527 0.799988C139.622 0.799988 136.642 1.59728 135.579 3.15389C135.009 3.91321 134.687 4.86236 134.668 5.98236V13.5186C134.668 14.1641 134.535 14.4108 134.516 14.4678L134.345 14.7905H125.176V9.55117H125.157C125.043 4.02711 121.778 0.989818 117.051 0.989818H116.501H112.439C112.249 2.33761 112.097 3.28677 111.907 4.63456H116.501C118.912 4.63456 120.184 6.68473 120.184 9.83592V15.1132L119.861 14.9424C119.804 14.9234 119.405 14.7905 118.779 14.7905H110.844C110.692 15.7966 110.502 17.1064 110.293 18.4163H134.687C135.522 18.2454 136.49 18.0935 137.325 17.9607C138.559 18.5681 140.856 18.8908 142.432 18.8908C147.728 18.8908 151.164 15.341 151.164 9.87389C151.145 4.46372 147.823 0.913886 142.66 0.799988Z" fill="#27292D"/>
<path id="Vector_8" d="M99.8908 20.6373H100.119C105.415 20.6373 107.883 18.8908 107.883 14.5817C107.883 11.4874 105.624 9.01964 101.827 9.01964H96.9484C95.4868 9.01964 94.6135 8.18438 94.6135 6.77964C94.6135 5.83048 94.9742 4.65353 97.3661 4.65353H108.035C108.262 3.26777 108.376 2.39455 108.585 1.00879H97.499C92.3356 1.00879 89.7349 3.17286 89.7349 6.77964C89.7349 10.3484 91.9939 12.2088 95.7905 12.2088H100.669C102.131 12.2088 103.004 13.3668 103.004 14.5817C103.004 15.379 102.643 17.0305 100.27 17.0305H99.4542L83.8312 16.9925H80.9837C78.5729 16.9925 76.8834 15.6257 76.8834 12.4556V10.2725C76.8834 6.96947 78.1932 4.9193 80.9837 4.9193H85.6156C85.8244 3.51455 85.9573 2.62235 86.1471 1.29353H80.3762H79.8257C75.099 1.29353 71.8339 4.4637 71.72 9.98777V10.1966V12.4556C71.8339 17.9796 75.099 20.6183 79.8257 20.6183H80.3762H84.4386L92.9051 20.6373H97.9546H99.8908Z" fill="#27292D"/>
</g>
</g>
</svg>
