<svg width="119" height="52" viewBox="0 0 119 52" fill="none" xmlns="http://www.w3.org/2000/svg">
<g id="Group 1000004141">
<path id="Vector" d="M22.9991 7.29686C24.3773 5.52499 25.3616 3.16249 25.0663 0.799988C22.9991 0.898425 20.5382 2.17811 19.0616 3.85155C17.782 5.32811 16.6007 7.78905 16.896 10.0531C19.2585 10.3484 21.5226 9.06874 22.9991 7.29686ZM25.0663 10.6437C21.7195 10.4469 18.8648 12.5141 17.2898 12.5141C15.7148 12.5141 13.2538 10.7422 10.596 10.7422C7.1507 10.8406 4.0007 12.7109 2.22883 15.8609C-1.31492 22.0625 1.24445 31.2172 4.7882 36.2375C6.46164 38.6984 8.52883 41.4547 11.1866 41.3563C13.746 41.2578 14.7304 39.6828 17.782 39.6828C20.8335 39.6828 21.7195 41.3563 24.4757 41.2578C27.232 41.1594 29.0038 38.7969 30.6773 36.2375C32.646 33.3828 33.4335 30.6266 33.4335 30.5281C33.3351 30.4297 28.0195 28.4609 28.0195 22.3578C27.921 17.2391 32.1538 14.7781 32.3507 14.6797C30.0866 11.1359 26.346 10.7422 25.0663 10.6437Z" fill="black"/>
<g id="Group">
<path id="Vector_2" d="M54.0069 3.65463C61.2913 3.65463 66.3116 8.67495 66.3116 15.8609C66.3116 23.1453 61.1929 28.1656 53.8101 28.1656H45.8366V40.864H40.0288V3.65463H54.0069ZM45.8366 23.3421H52.4319C57.4523 23.3421 60.3069 20.5859 60.3069 15.9593C60.3069 11.2343 57.4523 8.57651 52.4319 8.57651H45.7382V23.3421H45.8366ZM67.7882 33.2843C67.7882 28.5593 71.4304 25.6062 77.9273 25.2125L85.4085 24.8187V22.7515C85.4085 19.6999 83.3413 17.9281 79.9944 17.9281C76.746 17.9281 74.7773 19.5031 74.2851 21.8656H68.9694C69.2648 16.9437 73.4976 13.3015 80.1913 13.3015C86.7866 13.3015 91.0195 16.7468 91.0195 22.2593V40.9625H85.7038V36.5328H85.6054C84.0304 39.5843 80.5851 41.4546 77.0413 41.4546C71.5288 41.4546 67.7882 38.1078 67.7882 33.2843ZM85.4085 30.8234V28.6578L78.7148 29.0515C75.3679 29.2484 73.4976 30.725 73.4976 33.0875C73.4976 35.45 75.4663 37.025 78.4194 37.025C82.3569 37.025 85.4085 34.3671 85.4085 30.8234ZM95.9413 51.0031V46.475C96.3351 46.5734 97.3195 46.5734 97.7132 46.5734C100.273 46.5734 101.651 45.4906 102.537 42.7343C102.537 42.6359 103.029 41.0609 103.029 41.0609L93.1851 13.8921H99.1898L106.08 36.0406H106.179L113.069 13.8921H118.976L108.837 42.5375C106.474 49.1328 103.816 51.2 98.2054 51.2C97.8116 51.1015 96.4335 51.1015 95.9413 51.0031Z" fill="black"/>
</g>
</g>
</svg>
