<svg width="121" height="52" viewBox="0 0 121 52" fill="none" xmlns="http://www.w3.org/2000/svg">
<g id="Frame" clip-path="url(#clip0_74_1700)">
<path id="Vector" d="M120.454 36.5999L117.539 12.2984C116.755 5.7555 111.193 0.819794 104.602 0.819794H76.7597C70.1689 0.819794 64.6072 5.7555 63.823 12.2984L60.9109 36.5999C60.4679 40.2962 61.6296 44.0137 64.1017 46.7981C66.5708 49.5844 70.1237 51.1801 73.8476 51.1801H107.517C111.238 51.1801 114.791 49.5844 117.263 46.7981C119.732 44.0145 120.897 40.297 120.454 36.5999ZM112.468 42.5748C111.145 44.0656 109.319 44.8856 107.329 44.8856H74.0363C72.0432 44.8856 70.2167 44.0656 68.8973 42.5748C67.574 41.0842 66.9788 39.1748 67.2147 37.1961L70.094 13.167C70.5075 9.71898 73.4401 7.11446 76.9156 7.11446H104.447C107.921 7.11446 110.855 9.7182 111.268 13.167L114.151 37.1961C114.387 39.1748 113.788 41.0842 112.468 42.5748Z" fill="#004956"/>
<path id="Vector_2" d="M107.41 29.1404C106.952 28.4378 106.247 27.9558 105.427 27.7831C104.604 27.6103 103.767 27.7678 103.064 28.2254C94.6811 33.6926 86.5229 33.6918 78.124 28.2247C77.4212 27.767 76.5815 27.6095 75.7615 27.7839C74.9407 27.9573 74.2374 28.4401 73.7797 29.1427C73.3221 29.8455 73.1654 30.6844 73.339 31.5052C73.5124 32.326 73.9952 33.0293 74.6978 33.4869C79.9464 36.9038 85.2972 38.6358 90.6013 38.6358C95.9064 38.6358 101.253 36.903 106.494 33.4854C107.197 33.027 107.679 32.3229 107.851 31.5022C108.025 30.6822 107.868 29.8433 107.41 29.1404Z" fill="#004956"/>
<path id="Vector_3" d="M50.2991 16.0213L47.3207 17.0475C47.6458 18.0989 48.0462 19.6003 48.0462 20.4758C48.0462 21.4267 47.4454 22.0023 46.2943 22.0023C45.1182 22.0023 44.4177 21.7267 44.4177 20.1751V17.4975H41.2644V20.1751C41.2644 21.7267 40.5638 22.0023 39.3121 22.0023C38.0857 22.0023 37.3854 21.7267 37.3854 20.1751V17.4975H34.2069V20.15C34.2069 21.7267 33.3556 22.0015 31.5291 22.0015C29.6525 22.0015 29.0016 21.6262 29.0016 19.5736V8.0882H25.673V19.7503C25.673 21.652 25.0221 22.0023 23.1462 22.0023H23.1454C21.6684 22.0023 20.7937 21.7031 20.7937 19.8256V11.2157H17.6646V12.9942C11.7331 14.2184 9.60669 16.6966 9.60669 19.8005C9.60669 22.7522 11.558 24.6555 14.4107 24.6555C16.5394 24.6555 17.6136 23.579 18.0902 22.1271C18.5158 24.705 20.0148 26.2049 22.9406 26.2064L22.9452 26.2071C25.1728 26.2071 26.4236 25.2059 26.949 23.6795C27.5999 25.381 29.0762 26.2071 31.3283 26.2071C33.405 26.2071 34.7565 25.4564 35.2817 23.9048C35.8071 25.4815 37.0588 26.2071 38.8356 26.2071C40.6127 26.2071 41.8392 25.4564 42.3392 23.8797C42.8646 25.4564 44.1415 26.2071 46.1933 26.2071C49.2964 26.2071 51.1982 24.1797 51.1982 20.5009C51.1997 19.1496 50.8243 17.2973 50.2991 16.0213ZM17.6654 19.7244C17.1659 20.1248 16.2135 20.4263 14.8119 20.4263C13.5352 20.4263 12.2599 20.0769 12.2599 19.2249C12.2599 18.2976 13.5854 17.3726 17.6646 16.6966V19.7244H17.6654Z" fill="#004956"/>
<path id="Vector_4" d="M19.354 10.4392C20.3697 10.4392 21.2056 9.70222 21.2056 8.66681C21.2056 7.57202 20.3293 6.89444 19.354 6.89444C18.3384 6.89444 17.4819 7.59104 17.4819 8.66681C17.4819 9.76238 18.3978 10.4392 19.354 10.4392Z" fill="#004956"/>
<path id="Vector_5" d="M15.169 10.4392C16.1846 10.4392 17.0205 9.70222 17.0205 8.66681C17.0205 7.57202 16.1442 6.89444 15.169 6.89444C14.1534 6.89444 13.2969 7.59104 13.2969 8.66681C13.2969 9.76238 14.2127 10.4392 15.169 10.4392Z" fill="#004956"/>
<path id="Vector_6" d="M0.639648 44.1249L1.13223 41.4489C2.09531 42.1341 3.80829 42.7545 5.24189 42.7545C6.48362 42.7545 7.21145 42.348 7.21145 41.6628C7.21145 39.8005 0.746995 41.5343 0.746995 37.018C0.746995 34.6633 2.69524 33.1223 5.8418 33.1223C7.53272 33.1223 9.09573 33.5935 10.2088 34.1714L9.67359 36.7828C8.62446 36.2262 7.29748 35.7123 6.01311 35.7123C4.8361 35.7123 4.10827 36.1614 4.10827 36.804C4.10827 38.7522 10.5727 37.0827 10.5727 41.2989C10.5727 43.611 8.3679 45.2372 5.11398 45.2372C3.16574 45.2379 1.60273 44.6601 0.639648 44.1249Z" fill="#004956"/>
<path id="Vector_7" d="M21.4025 33.5076H24.7844V44.9166H21.4025V43.0332C20.4821 44.4028 19.1764 45.1954 17.4855 45.1954C14.6168 45.1954 11.8555 43.162 11.8555 39.2015C11.8555 35.2411 14.4881 33.1649 17.4855 33.1649C19.1551 33.1649 20.4608 33.7853 21.4025 35.0272V33.5076ZM21.4025 39.1589C20.782 37.0394 19.5403 35.9696 18.1273 35.9696C16.6077 35.9696 15.4299 37.1039 15.4299 39.1589C15.4299 41.1923 16.6282 42.3913 18.1486 42.3913C19.6263 42.3906 20.846 41.085 21.4025 39.1589Z" fill="#004956"/>
<path id="Vector_8" d="M27.2681 44.9166V29.8682H30.6499V44.9166H27.2681Z" fill="#004956"/>
<path id="Vector_9" d="M33.1333 44.9166V29.8682H36.5151V44.9166H33.1333Z" fill="#004956"/>
<path id="Vector_10" d="M47.9882 33.5076H51.37V44.9166H47.9882V43.0332C47.0679 44.4028 45.762 45.1954 44.0711 45.1954C41.2026 45.1954 38.4412 43.162 38.4412 39.2015C38.4412 35.2411 41.0738 33.1649 44.0711 33.1649C45.7408 33.1649 47.0465 33.7853 47.9882 35.0272V33.5076ZM47.9882 39.1589C47.3678 37.0394 46.1262 35.9696 44.7129 35.9696C43.1934 35.9696 42.0155 37.1039 42.0155 39.1589C42.0155 41.1923 43.214 42.3913 44.7344 42.3913C46.2113 42.3906 47.4318 41.085 47.9882 39.1589Z" fill="#004956"/>
</g>
<defs>
<clipPath id="clip0_74_1700">
<rect width="120.204" height="50.4" fill="white" transform="translate(0.600098 0.800003)"/>
</clipPath>
</defs>
</svg>
