<svg width="114" height="52" viewBox="0 0 114 52" fill="none" xmlns="http://www.w3.org/2000/svg">
<path id="Vector" fill-rule="evenodd" clip-rule="evenodd" d="M94.255 0.820798C106.053 0.440215 113.393 5.27905 113.665 15.7179V51.0033H97.191C97.191 42.6305 97.191 29.2557 97.191 19.3606C97.4628 15.0111 93.0589 14.4674 91.5366 14.5761H86.3172C86.3172 25.7218 86.3172 39.9664 86.3172 51.1121C79.4667 51.1121 76.8026 51.1121 69.9521 51.1121C69.9521 40.0208 69.9521 25.6674 69.9521 14.5761C67.3424 14.5761 61.7968 14.5761 59.1871 14.5761C59.1871 25.6674 59.1871 39.9121 59.1871 51.0033C52.3366 51.0033 49.6181 51.0033 42.7677 51.0033V14.6305H21.9987C19.6065 15.5548 20.2589 16.6422 22.2706 18.1101C26.7832 21.9703 33.09 25.6674 35.156 31.0499C37.222 36.3781 35.6997 41.4888 32.4919 45.349C29.7735 48.6655 25.6414 50.7859 20.5308 50.949H0.305511V37.0849C5.19872 37.0849 10.0919 37.0849 14.9851 37.0849C17.921 35.78 15.5832 33.3878 11.723 30.615C4.54629 25.3956 0.468618 19.9587 0.305511 14.5218C0.142404 7.72565 4.65503 1.47323 18.8453 0.820798H18.8997C44.7249 0.820798 68.4298 0.820798 94.255 0.820798Z" fill="#430098"/>
</svg>
