<svg width="162" height="52" viewBox="0 0 162 52" fill="none" xmlns="http://www.w3.org/2000/svg">
<g id="Group 1000004137">
<path id="Vector" d="M71.7812 39.5449V16.6815H63.8479V12.727H84.4838V16.6815H76.4973V39.5449H71.7812ZM97.4004 39.5449V12.727H106.566C111.335 12.727 115.034 13.9184 117.553 16.2489C120.072 18.5781 121.305 21.8287 121.305 26.001C121.305 30.1717 120.072 33.4775 117.607 35.9155C115.141 38.3535 111.336 39.5449 106.191 39.5449H97.4004ZM102.17 35.4816H106.887C109.942 35.4816 112.301 34.6689 114.015 33.0986C115.731 31.5271 116.535 29.1428 116.535 26.1634C116.535 23.1828 115.676 20.8537 114.015 19.1746C112.354 17.4942 109.781 16.7366 106.405 16.7366H102.171L102.17 35.4816ZM147.46 39.8162C145.63 39.8571 143.81 39.5283 142.108 38.8491C140.405 38.1697 138.854 37.1536 137.545 35.8603C132.185 30.4044 132.185 21.5974 137.545 16.1401C138.85 14.841 140.4 13.8212 142.104 13.1417C143.808 12.4622 145.629 12.137 147.46 12.1856C151.156 12.1126 154.725 13.5355 157.376 16.1401C162.737 21.5974 162.737 30.4044 157.376 35.8603C156.064 37.1495 154.512 38.1629 152.81 38.842C151.108 39.5209 149.289 39.8521 147.46 39.8162ZM147.46 16.0865C146.234 16.0681 145.018 16.3205 143.898 16.8258C142.778 17.331 141.781 18.0772 140.975 19.012C139.249 20.9171 138.309 23.4178 138.349 26.001C138.286 28.5718 139.229 31.064 140.975 32.9348C141.792 33.8554 142.792 34.592 143.909 35.0961C145.027 35.6002 146.237 35.8608 147.461 35.8608C148.684 35.8608 149.894 35.6002 151.012 35.0961C152.129 34.592 153.129 33.8554 153.946 32.9348C155.638 31.0191 156.572 28.5412 156.572 25.9733C156.572 23.4056 155.638 20.9277 153.946 19.012C153.14 18.077 152.143 17.3308 151.022 16.8256C149.902 16.3204 148.686 16.0681 147.46 16.0865ZM87.3768 18.3069C87.3687 16.979 87.8368 15.6933 88.6944 14.6875C89.5519 13.6817 90.7407 13.0239 92.0411 12.8358H92.0942V34.0188C92.1019 35.3464 91.634 36.6319 90.777 37.6379C89.9197 38.6439 88.7314 39.3022 87.4312 39.4911H87.3768V18.3069ZM125.11 18.3069C125.102 16.9793 125.57 15.6936 126.427 14.6879C127.284 13.6821 128.473 13.0242 129.773 12.8358H129.827V34.0188C129.835 35.3464 129.367 36.6319 128.51 37.6379C127.653 38.6439 126.464 39.3022 125.164 39.4911H125.11V18.3069Z" fill="#030714"/>
<path id="Vector_2" d="M32.9337 0.800035C28.7149 0.792116 24.6296 2.27746 21.4011 4.99298C18.1727 7.70851 16.0093 11.479 15.2944 15.6367H15.2985C11.1377 16.3637 7.3667 18.535 4.64912 21.7684C1.93155 25.0018 0.441573 29.0902 0.441406 33.314V51.2H18.371C22.5436 51.2037 26.5863 49.7499 29.8012 47.0902C33.016 44.4304 35.2011 40.7313 35.979 36.6319H32.0449H50.8414V18.6874C50.8182 8.80994 42.811 0.812299 32.9337 0.800035ZM15.0313 18.746V18.7515V18.746Z" fill="#135EEB"/>
<path id="Vector_3" d="M18.4264 15.432C17.3924 15.4388 16.3596 15.5268 15.3404 15.699C15.1697 16.7187 15.0806 17.7502 15.0737 18.7841C15.0738 21.1208 15.5341 23.4345 16.4283 25.5929C17.3224 27.7515 18.6329 29.7123 20.2847 31.3632C21.9357 33.0151 23.8954 34.3249 26.0524 35.2179C28.2094 36.111 30.5208 36.5696 32.855 36.5675H35.8897C36.1061 35.4619 36.2145 34.3373 36.209 33.21C36.212 30.8727 35.7541 28.5577 34.8613 26.398C33.9685 24.2383 32.6585 22.2763 31.0064 20.6246C29.3544 18.9729 27.3928 17.664 25.2343 16.7729C23.0757 15.8819 20.7612 15.4262 18.4264 15.432Z" fill="#0A60EA"/>
<path id="Vector_4" d="M33.1825 36.5439C30.8151 36.5489 28.4698 36.0873 26.2808 35.1858C24.0916 34.2843 22.1019 32.9604 20.4249 31.2899C18.7481 29.6193 17.417 27.6349 16.5077 25.45C15.5985 23.265 15.1289 20.9223 15.1258 18.5559C15.1327 17.5096 15.2219 16.4646 15.3947 15.432C11.2085 16.1622 7.41406 18.3448 4.67895 21.5956C1.94386 24.8464 0.443342 28.9572 0.441406 33.2048V51.1997H18.4872C22.6867 51.2034 26.7558 49.741 29.9913 47.0651C33.227 44.3892 35.4263 40.6681 36.2091 36.5439H33.1825Z" fill="#15C2FF"/>
<path id="Vector_5" d="M32.8225 0.800034C28.5776 0.792132 24.467 2.27482 21.2184 4.98548C17.9699 7.69613 15.7931 11.4598 15.0737 15.6101C16.1073 15.4385 17.153 15.3489 18.201 15.3419C20.8545 15.3382 23.476 15.9169 25.8778 17.0362C28.2795 18.1554 30.4021 19.7877 32.0932 21.8162C33.7845 23.8447 35.0025 26.2191 35.6603 28.7695C36.318 31.3198 36.3991 33.9828 35.8977 36.5677H50.8416V18.6554C50.8182 8.79559 42.7613 0.812267 32.8225 0.800034Z" fill="#2C82FF"/>
</g>
</svg>
