<svg width="157" height="52" viewBox="0 0 157 52" fill="none" xmlns="http://www.w3.org/2000/svg">
<g id="g4158">
<path id="polygon9" d="M68.0827 50.4727H55.4675L63.358 1.6842H75.9725L68.0827 50.4727Z" fill="#00579F"/>
<path id="path11" d="M113.814 2.87696C111.325 1.88979 107.379 0.799835 102.499 0.799835C90.041 0.799835 81.2683 7.44303 81.2145 16.9408C81.111 23.9482 87.4955 27.8403 92.2706 30.1768C97.1513 32.5644 98.8103 34.1227 98.8103 36.2509C98.7607 39.5194 94.8665 41.026 91.2345 41.026C86.1979 41.026 83.4993 40.2493 79.3981 38.4308L77.737 37.6513L75.9717 48.6033C78.9304 49.9512 84.3816 51.1474 90.041 51.1998C103.278 51.1998 111.895 44.6594 111.997 34.538C112.048 28.9841 108.676 24.7285 101.408 21.251C96.996 19.0186 94.2939 17.5134 94.2939 15.2293C94.3457 13.1529 96.5794 11.0261 101.56 11.0261C105.661 10.9219 108.674 11.9077 110.957 12.8942L112.098 13.4123L113.814 2.87696Z" fill="#00579F"/>
<path id="path13" d="M130.58 33.1887C131.619 30.3859 135.617 19.5381 135.617 19.5381C135.565 19.6422 136.654 16.6835 137.277 14.8671L138.158 19.071C138.158 19.071 140.547 30.7494 141.066 33.1887C139.095 33.1887 133.072 33.1887 130.58 33.1887ZM146.152 1.6842H136.394C133.385 1.6842 131.099 2.56582 129.801 5.73221L111.063 50.472H124.299C124.299 50.472 126.479 44.4504 126.947 43.1535C128.399 43.1535 141.276 43.1535 143.144 43.1535C143.506 44.8664 144.649 50.472 144.649 50.472H156.33L146.152 1.6842Z" fill="#00579F"/>
<path id="path15" d="M44.9309 1.6842L32.5765 34.9533L31.2265 28.2059C28.9424 20.4204 21.7791 11.9615 13.7852 7.75552L25.1014 50.421H38.4416L58.2704 1.6842H44.9309Z" fill="#00579F"/>
<path id="path17" d="M21.1043 1.6842H0.80774L0.600098 2.66999C16.4327 6.71868 26.9183 16.4779 31.2264 28.208L26.8142 5.78533C26.0878 2.6693 23.8554 1.78699 21.1043 1.6842Z" fill="#FAA61A"/>
</g>
</svg>
