<svg width="63" height="52" viewBox="0 0 63 52" fill="none" xmlns="http://www.w3.org/2000/svg">
<g id="Group 1000004135">
<path id="Vector" d="M48.2035 28.118C46.6647 28.118 45.0811 27.0678 45.0335 25.0814C44.9603 22.4393 45.6872 19.8356 47.1214 17.6029C46.5221 16.8374 45.828 16.149 45.0551 15.5538C42.7814 16.9533 40.136 17.6519 37.4573 17.5602C35.44 17.4963 34.3939 15.9276 34.3997 14.41C34.4055 12.8924 35.4645 11.3322 37.4789 11.2838C40.1582 11.2107 42.7986 11.9276 45.0624 13.3428C45.4502 13.0482 45.8189 12.7298 46.1661 12.3894C46.5137 12.0492 46.8394 11.688 47.1416 11.308C45.7224 9.06575 45.0139 6.45689 45.107 3.81529C45.1705 1.82595 46.7612 0.795753 48.3001 0.800016C49.839 0.804279 51.4225 1.8501 51.47 3.8366C51.5435 6.4787 50.8166 9.08237 49.3822 11.3151C49.6813 11.6973 50.0042 12.0608 50.349 12.4036C50.6944 12.746 51.0605 13.0672 51.4456 13.3656C53.7194 11.9661 56.3647 11.2675 59.0434 11.3592C61.0607 11.4217 62.1068 12.9904 62.101 14.508C62.0953 16.0256 61.0362 17.5872 59.0219 17.6341C56.3424 17.7079 53.7018 16.991 51.4384 15.5751C50.6627 16.1667 49.9643 16.8507 49.3591 17.6114C50.7791 19.8534 51.488 22.4623 51.3951 25.1041C51.3318 27.0934 49.7409 28.1236 48.2021 28.118M48.2338 19.318C47.2848 21.0759 46.8147 23.0465 46.8692 25.0373C46.8938 25.968 47.6056 26.302 48.2093 26.3034C48.813 26.3048 49.5263 25.978 49.5566 25.0459C49.6255 23.0558 49.1697 21.0823 48.2338 19.318ZM46.5984 14.4526C46.8952 14.6998 47.1819 14.9627 47.4629 15.237C47.7439 15.5112 48.0018 15.7954 48.2511 16.0895C48.5018 15.7982 48.7669 15.514 49.045 15.237C49.3231 14.9599 49.6127 14.7041 49.9096 14.4582C49.6127 14.211 49.3246 13.9501 49.045 13.6753C48.7698 13.4011 48.5061 13.1155 48.2568 12.8228C48.0062 13.1136 47.741 13.3978 47.4615 13.6753C47.1819 13.9529 46.8938 14.212 46.5969 14.4526M37.865 13.0927H37.5236C36.5798 13.1155 36.2426 13.8174 36.2397 14.4128C36.2368 15.0081 36.5697 15.7115 37.5149 15.7414C39.5335 15.8123 41.5361 15.3643 43.3261 14.4412C41.6459 13.5585 39.7718 13.0955 37.868 13.0927M53.1819 14.4753C54.9637 15.4118 56.9617 15.8755 58.98 15.821C59.9253 15.7982 60.2625 15.0948 60.2653 14.5009C60.2682 13.9069 59.9353 13.2008 58.9901 13.1709C56.9723 13.1033 54.9711 13.5528 53.1819 14.4753ZM48.2958 2.61316C47.6935 2.61316 46.9788 2.93998 46.9485 3.87071C46.8791 5.86074 47.3349 7.83442 48.2712 9.59857C49.2199 7.84108 49.6901 5.87094 49.6358 3.88066C49.6113 2.94851 48.8995 2.616 48.2958 2.61316Z" fill="#7462F4"/>
<path id="Vector_2" d="M0.00390625 37.4999H13.5167V33.6704C13.5167 31.7691 12.7554 30.3179 11.2329 29.3166C9.71033 28.3153 7.76894 27.8146 5.40873 27.8146C4.31075 27.8224 3.21547 27.9231 2.135 28.1159C1.99726 27.3595 1.92113 26.5936 1.90733 25.8253C1.90733 24.6496 2.15469 23.818 2.6494 23.3301C3.14411 22.8422 3.92412 22.5499 4.98942 22.4533C5.85397 22.4041 6.48844 22.379 6.89286 22.378C9.40579 22.378 11.5945 22.8285 13.459 23.7294C15.2595 24.5723 16.7591 25.9331 17.7602 27.6328C18.7621 29.3379 19.263 31.3524 19.263 33.676V43.0544H0.00390625V37.4999Z" fill="#7462F4"/>
<path id="Vector_3" d="M23.2213 45.9072C24.008 45.9072 24.5791 45.6946 24.9345 45.2693C25.2899 44.8439 25.4676 44.1055 25.4676 43.0539V28.4209C25.4676 27.1951 25.7342 26.2881 26.2673 25.6998C26.8005 25.1115 27.701 24.8173 28.969 24.8173C29.7252 24.8267 30.4792 24.9004 31.2226 25.0376V43.0568C31.2226 45.7339 30.6136 47.7607 29.3956 49.1371C28.1775 50.5135 26.4368 51.2008 24.1737 51.1989C22.5405 51.176 20.9214 50.8974 19.377 50.3733L20.4807 45.4938C21.6478 45.7694 22.5604 45.9072 23.2184 45.9072M26.0742 20.796C25.5506 20.2755 25.226 19.5921 25.1556 18.8622C25.0854 18.1322 25.2737 17.4007 25.6887 16.7923C26.1037 16.1838 26.7196 15.736 27.4316 15.5249C28.1437 15.3139 28.908 15.3527 29.5943 15.6347C30.2806 15.9167 30.8467 16.4246 31.1961 17.0718C31.5456 17.7191 31.6568 18.4657 31.5109 19.1847C31.365 19.9037 30.971 20.5506 30.3959 21.0154C29.8208 21.4802 29.1002 21.734 28.3566 21.7339C27.9314 21.7396 27.5095 21.6594 27.117 21.4981C26.7244 21.3367 26.3695 21.0978 26.0742 20.796Z" fill="#7462F4"/>
</g>
</svg>
